PathFileType	4	(X/Y/Z)	33_1_50_p1_0-308_filt_butterworth.trc
DataRate	CameraRate	NumFrames	NumMarkers	Units	OrigDataRate	OrigDataStartFrame	OrigNumFrames
60.0	60.0	7	27	m	60.0	154	308
Frame#	Time	RHip			RKnee			RAnkle			RBigToe			RSmallToe			RHeel			LHip			LKnee			LAnkle			LBigToe			LSmallToe			LHeel			Neck			Head			Nose			RShoulder			RElbow			RWrist			RThumb			RIndex			RPinky			LShoulder			LElbow			LWrist			LThumb			LIndex			LPinky			
		X1	Y1	Z1	X2	Y2	Z2	X3	Y3	Z3	X4	Y4	Z4	X5	Y5	Z5	X6	Y6	Z6	X7	Y7	Z7	X8	Y8	Z8	X9	Y9	Z9	X10	Y10	Z10	X11	Y11	Z11	X12	Y12	Z12	X13	Y13	Z13	X14	Y14	Z14	X15	Y15	Z15	X16	Y16	Z16	X17	Y17	Z17	X18	Y18	Z18	X19	Y19	Z19	X20	Y20	Z20	X21	Y21	Z21	X22	Y22	Z22	X23	Y23	Z23	X24	Y24	Z24	X25	Y25	Z25	X26	Y26	Z26	X27	Y27	Z27	
154	2.566666666666667	0.30227762698751426	0.6685835948740748	0.5462258411950234	0.26174111794799876	0.22599211669944297	0.6169341378906736	0.2465751039319899	-0.1931527270487427	0.6933732563614577	0.259068607295313	-0.21128044483238997	0.5363912352514072	0.31703856221615656	-0.22593949093389165	0.584077832664444	0.22565707578526603	-0.285438456327683	0.7795628836426314	0.08561569760799466	0.6550714070969756	0.5891473975833605	0.10350476253486832	0.2270137564997879	0.6132626391044896	0.08862610580909298	-0.23987189118298236	0.7404741872288487	0.0934884663799597	-0.19397494542529825	0.5086886938192425	0.045483799001561194	-0.22362228392587288	0.573302689660737	0.09433793440229102	-0.2930147061302874	0.79276938609685	0.2182698506221301	1.2728920594545368	0.5414894997474923	0.21927968119695745	1.5071806570405168	0.42506880793860163	0.2082918537101784	1.3710169333773699	0.40490884205708455	0.37628714039795286	1.1908187689313117	0.5396160816943169	0.4812578225036985	0.9574027836035103	0.36718659409484095	0.3572113792103725	1.0509368111529473	0.19034463931493725	0.2429351985439946	1.102401361423008	0.15564545597140025	0.23673524468817184	1.101141970061674	0.1097919999547941	0.25757277441256227	1.046992673431637	0.12723276812786236	0.05253965838927313	1.183085566180183	0.5460288467713718	-0.03177636664666536	0.8968884192103328	0.5900095399387919	0.01366420704533098	0.7019393673666903	0.4125493268139908	0.079443096634485	0.6301036248054986	0.3378593642602185	0.06301490201470372	0.6227539604454191	0.3196925684997286	0.029485877445726207	0.6036907416221685	0.3665415728350348	
155	2.583333333333333	0.30216801712837477	0.6681978223299339	0.5468590663296529	0.26205126958177566	0.22521154670020538	0.6163441046518872	0.2465679917907023	-0.19311212025713148	0.6933588975658262	0.25951596336590765	-0.20770224017652394	0.5294567705162222	0.3164857677468641	-0.22378391128220546	0.5814936486472614	0.22521184165501124	-0.28505458753968643	0.7793365145379917	0.08612276666998406	0.6543475703474512	0.5896382754916929	0.10410026369931205	0.22668686767681032	0.6129402451428725	0.0892122259392418	-0.23969381174110566	0.7400007947482067	0.09338334502105582	-0.19282871316584443	0.5081559425418367	0.045223620419285473	-0.22314834200610745	0.5739056648839275	0.09453201129085245	-0.29354031928443164	0.793701304392251	0.21825268772464806	1.2729287300386827	0.5414735117045979	0.2193275388187737	1.5060839116657743	0.42505909939371367	0.2090627073485728	1.3709144454970674	0.40281718636917513	0.3753731114034897	1.190320209308196	0.5399754964559348	0.477093644581288	0.9565456687862626	0.367713460754646	0.35359579648525097	1.055016690993484	0.1964327029617205	0.2416852389922951	1.1110324199756891	0.1555664126914921	0.23536312946822718	1.1101955513831219	0.10825463708333288	0.2527729791616693	1.0544254486107763	0.12968993775948004	0.05302849479066178	1.183099559769295	0.5461020530501242	-0.029880220680937555	0.8951394945012793	0.5903199703223859	0.01890462079655084	0.6997617327627327	0.4157005155978188	0.085093829894698	0.6286275178901704	0.33969402502063345	0.06923106243327416	0.6177384115352028	0.32691930430345173	0.03542840859018016	0.5987841433835642	0.36616266239368667	
156	2.6	0.30192940648156497	0.6679903219020532	0.5480338976905782	0.26234756673698584	0.22465142741911998	0.6158682550539509	0.24656664505316422	-0.19301286908170895	0.693331914885096	0.2598592033967065	-0.20438526469101867	0.522347029234312	0.3159088895106318	-0.22149414818791716	0.578729191341193	0.2247853547369288	-0.2848143294006454	0.7792176780420619	0.08666230679134855	0.654009413535405	0.5898362331942644	0.10463088507949846	0.2266714586080165	0.6124066619992693	0.08975836808253321	-0.2392730698946895	0.7392334447852896	0.0932927531843302	-0.19184625323680404	0.5077582389986284	0.045036747896689364	-0.222505154215922	0.5735153973893311	0.09468906213861039	-0.2941348835012564	0.7946603660762274	0.21822299164895653	1.272919699116927	0.5414829359025719	0.21938885194725485	1.5048128696019267	0.42508680454580594	0.20995124213473598	1.3708080405844982	0.40061338804461244	0.3744709965626274	1.1903292683375837	0.5399668812210286	0.4730311071191715	0.9560700859775142	0.3696730702943636	0.34897143916301493	1.0592007117866347	0.20405836916739373	0.24006147199980887	1.1180645209958655	0.1578798891195751	0.23406303527652672	1.1186852062696229	0.10841324383531986	0.2494067082659006	1.0608580230679268	0.13191299812590762	0.05309785150698282	1.1833302868284155	0.5469262050771128	-0.027819340988151746	0.8942398403544257	0.5894414201343793	0.024979028837821007	0.6972299503774757	0.4229965903124937	0.08946663361743523	0.6268312727560867	0.3452746581941557	0.07505323058857181	0.612564393195246	0.3346784199312106	0.04040928413857454	0.5939429632055185	0.36656687307551084	
157	2.6166666666666667	0.3016425874866702	0.6682047101761542	0.5493642653604904	0.26257761455879625	0.2242768846618408	0.6154956360384396	0.24657433273178855	-0.19285754866401805	0.693290429460138	0.25996997327498017	-0.20233028108454856	0.5169601767689852	0.31540167588928053	-0.21940049887073504	0.5762096935150897	0.22436876057266478	-0.28470272152662657	0.7791695302804695	0.08736858496766528	0.6541583998607379	0.5897970161848295	0.1050267527885442	0.22696578174133689	0.6116797004415193	0.0901911809091816	-0.23853030166549732	0.737958989019733	0.09324893696273168	-0.19128782265650912	0.5075877742628803	0.04519200919801556	-0.22154581614360674	0.5717264867205938	0.09471260144758312	-0.29460521296330716	0.7953134990880683	0.2181797456740817	1.2728937923017711	0.5415106816182809	0.21944018530885695	1.5035626257880739	0.4251284249938482	0.21078182121667421	1.370712490254061	0.3985705604796054	0.37351036303327256	1.1908093189382112	0.5396820730976788	0.469403487565337	0.9556573282514419	0.37246333474321824	0.34402473401781974	1.0636208780910053	0.21262061606512514	0.23802078472602234	1.124036398053163	0.1635817670245903	0.23271903426373391	1.1273681930374264	0.1119293490428186	0.2474660757633051	1.0671087287716094	0.13543991130686917	0.05309757347453823	1.1837729233851135	0.5486576372660684	-0.025844392555272502	0.893846049983636	0.5879034986087216	0.03136801085630869	0.6942703026763106	0.43378555676800445	0.09265798967978184	0.623778411841399	0.35563948952626007	0.08037328750294546	0.6081004968048594	0.34223903235445907	0.04455412202616703	0.5894625571111756	0.3684242513782666	
158	2.6333333333333333	0.3013843576564908	0.6689084005438328	0.550242773175	0.2627243482838322	0.22402076555034556	0.6151804680085924	0.24659110211456536	-0.1926612863218842	0.6932358657359405	0.25973388446482876	-0.2020214668940469	0.5143776267614545	0.31504944133677126	-0.21780733450923104	0.5743556915938285	0.22394653261815184	-0.28465393776445114	0.7791751580778241	0.0883296812483184	0.6548173782298586	0.5895502726641026	0.10527612095675076	0.2274840674236192	0.6107719945894631	0.09049215875076669	-0.23746666563682597	0.7361714570199984	0.09327016845816646	-0.19126909889256996	0.5076747652268084	0.045808972986063116	-0.22029346080349177	0.5689841436084784	0.09459382176013124	-0.29485845244062475	0.795484981817384	0.2181202999282708	1.2728738901801215	0.5415261182876604	0.21946852067275735	1.5025026739195426	0.42516086390917734	0.21137306068175857	1.3706400696029648	0.3968895148988939	0.37250095424092455	1.1915363186124044	0.5392528661154061	0.4660858662318147	0.9553599666449262	0.37527284001999794	0.3396582677795933	1.0685714576199168	0.221291101931107	0.23564705696018284	1.1303079180773947	0.17266734464293645	0.23110708013243553	1.1371669576676433	0.12019908637224058	0.2466635602945993	1.073976262325984	0.14067271172048815	0.05324575735004902	1.1843639926998408	0.5509444752118446	-0.02428313786925653	0.8934200250149392	0.5865585990812258	0.03746670994662535	0.6911679631312054	0.4451278308531913	0.09524547396405594	0.6194910769419201	0.3689454110050282	0.08529330033783106	0.6050109604857439	0.3482037402744761	0.04788696261556086	0.5857582222875742	0.37146742399264954	
159	2.65	0.30115366547954764	0.6699425417168582	0.5503856775984637	0.26278830130653125	0.2238560352770002	0.6148843323300354	0.24661090432640634	-0.19246052243215667	0.6931730966478081	0.25914076018596366	-0.20324116834130632	0.5144426216389656	0.3149149984052715	-0.21697244285457354	0.5735350990349125	0.2234917595023521	-0.2846062165695452	0.7792289739083845	0.08951135362790334	0.6559239070475875	0.5891435886041928	0.10541524729865566	0.22812170092852818	0.6096914583396442	0.09069768476763351	-0.23614172608036763	0.7340126314629886	0.09335528221417896	-0.19176747111076853	0.5079748817794123	0.046788418659269165	-0.219041597163772	0.566304281723219	0.0943906935202215	-0.29491379782111277	0.7952103017632507	0.21804520369839425	1.2728677919649507	0.5415051207165162	0.21948417565863862	1.5017228792786135	0.4252083280132466	0.21163437722715028	1.3705995993286182	0.3956700041210228	0.3715943691450023	1.1923577939904924	0.5387544349266165	0.46260529538434486	0.955527966372042	0.3767038576658471	0.3365442424730846	1.0743618093087943	0.22930513218951284	0.2329543885103585	1.1382674357250704	0.18429514705606065	0.22903143346877294	1.1483389901349275	0.1335114318246859	0.2463670377829026	1.0818068659480156	0.14722927960579332	0.0535745547401665	1.1850690869829505	0.5534874579619067	-0.023473081494981722	0.8928936623419351	0.585992090681586	0.04281644331478157	0.6883587439970474	0.4530682321959242	0.09786906417963342	0.6149306826531932	0.3811575074439126	0.09000135031526098	0.6033414984250286	0.35126829705908125	0.050270042667428044	0.5832678537674094	0.3749959930062144	
160	2.6666666666666665	0.30096884396862933	0.6711487616501254	0.5498800676628391	0.2627798400987511	0.22381043450943652	0.614604479778118	0.24662368192970394	-0.1923021243129595	0.6931090827580237	0.25828069906945594	-0.2053644663588493	0.5164330890372255	0.31499899589670954	-0.21692831309587762	0.5738011389602656	0.2229893979183892	-0.28458017921769346	0.7793260961003885	0.09082743754930295	0.6573375389624919	0.5886025032527726	0.10546863340301536	0.22884829264370996	0.6084909343383957	0.09084953780958901	-0.2346208024767668	0.7315831053737867	0.09348047413218802	-0.19263002959032627	0.5083732896654913	0.04792164229795828	-0.21815013571783015	0.5646255408007568	0.09417047420191725	-0.2948302086443812	0.7946701537312053	0.21796637194838442	1.2728591086406418	0.5414913065695767	0.21952577891046735	1.5012130787692368	0.42537305042917606	0.21150822415146775	1.3705926652396332	0.3948797665267069	0.3708519055080197	1.1932362674063446	0.5382534283974348	0.45842442170430997	0.9566299739100014	0.37488063294304913	0.3347025665852693	1.0812125527609309	0.23608112684040616	0.22985308213044991	1.1487129589535772	0.19705102106997371	0.2265119980231612	1.1606170020293076	0.15045407814239453	0.24569425334427486	1.0909099370270283	0.15494847217833776	0.05403943673417311	1.1859634421123935	0.5563056294353776	-0.023657454231806613	0.893033479606241	0.5857693492405618	0.047081477345930677	0.6864890180670227	0.45445951861381395	0.10090134709793983	0.6116384158722141	0.38838184546590626	0.0945941542559606	0.6027698130034673	0.3507962151337087	0.05174233024547967	0.582268625996909	0.3775770206502267	
